# xmcd
#
# Track frame offsets:
#	150
#	21684
#	40939
#	67101
#	88078
#	116214
#	137609
#	164506
#	178223
#	197101
#
# Disc length: 2987 seconds
#
# Revision: 0
# Processed by: cddbd v1.5.2PL0 Copyright (c) Steve Scherf et al.
# Submitted via: audiograbber 1.83.01
#
DISCID=9b0ba90a
DTITLE=Freddy Fender - Low down dirty shame
DYEAR=2001
DGENRE=
TTITLE0=Goin' upstairs
TTITLE1=Low down dirty shame
TTITLE2=No underwear
TTITLE3=Wanna get it
TTITLE4=Little rain
TTITLE5=You don't love me
TTITLE6=Juicy head woman
TTITLE7=Dust flyin'
TTITLE8=Rockin' chair
TTITLE9=Nappy head woman
EXTD=
EXTT0=
EXTT1=
EXTT2=
EXTT3=
EXTT4=
EXTT5=
EXTT6=
EXTT7=
EXTT8=
EXTT9=
PLAYORDER=
